<svg width="63" height="50" viewBox="0 0 63 50" fill="none" xmlns="http://www.w3.org/2000/svg">
<g filter="url(#filter0_d_26_14)">
<path d="M16 39H12" stroke="black" stroke-width="1.5"/>
</g>
<g filter="url(#filter1_d_26_14)">
<path d="M2 1H32.009C34.7704 1 37.009 3.23858 37.009 6V9.18182M7.22523 26.6364H32.009C34.7704 26.6364 37.009 24.3978 37.009 21.6364V9.18182M37.009 9.18182H46.7148C48.3298 9.18182 49.8453 9.96184 50.7838 11.2761L59.069 22.8781C59.6745 23.726 60 24.7419 60 25.7838V35C60 37.7614 57.7614 40 55 40H52.1622" stroke="black" stroke-width="1.5"/>
</g>
<g filter="url(#filter2_d_26_14)">
<path d="M42 40H26" stroke="black" stroke-width="1.5"/>
</g>
<g filter="url(#filter3_d_26_14)">
<circle cx="47" cy="40" r="4.25" stroke="black" stroke-width="1.5" shape-rendering="crispEdges"/>
</g>
<g filter="url(#filter4_d_26_14)">
<circle cx="21" cy="40" r="4.25" stroke="black" stroke-width="1.5" shape-rendering="crispEdges"/>
</g>
<path d="M5.438 18.126C5.00867 18.126 4.58867 18.0933 4.178 18.028C3.76733 17.9627 3.38 17.8647 3.016 17.734C2.652 17.594 2.32533 17.426 2.036 17.23C1.896 17.1273 1.798 17.0107 1.742 16.88C1.69533 16.7493 1.68133 16.6233 1.7 16.502C1.728 16.3713 1.784 16.2593 1.868 16.166C1.952 16.0727 2.05467 16.0167 2.176 15.998C2.29733 15.97 2.43267 16.0073 2.582 16.11C3.002 16.3807 3.44533 16.5813 3.912 16.712C4.37867 16.8333 4.88733 16.894 5.438 16.894C6.23133 16.894 6.81467 16.754 7.188 16.474C7.57067 16.1847 7.762 15.8113 7.762 15.354C7.762 14.9807 7.62667 14.6867 7.356 14.472C7.08533 14.248 6.63267 14.0707 5.998 13.94L4.5 13.632C3.61333 13.4453 2.95067 13.1373 2.512 12.708C2.08267 12.2787 1.868 11.7 1.868 10.972C1.868 10.5333 1.95667 10.132 2.134 9.768C2.32067 9.404 2.57733 9.09133 2.904 8.83C3.23067 8.55933 3.62267 8.354 4.08 8.214C4.53733 8.074 5.03667 8.004 5.578 8.004C6.15667 8.004 6.698 8.07867 7.202 8.228C7.71533 8.37733 8.17267 8.606 8.574 8.914C8.69533 8.998 8.77467 9.10533 8.812 9.236C8.85867 9.35733 8.868 9.47867 8.84 9.6C8.82133 9.72133 8.77 9.824 8.686 9.908C8.602 9.992 8.49467 10.0433 8.364 10.062C8.23333 10.0713 8.08867 10.0247 7.93 9.922C7.566 9.67933 7.19267 9.50667 6.81 9.404C6.43667 9.292 6.02133 9.236 5.564 9.236C5.10667 9.236 4.70533 9.306 4.36 9.446C4.024 9.586 3.76267 9.782 3.576 10.034C3.39867 10.286 3.31 10.5847 3.31 10.93C3.31 11.322 3.436 11.6347 3.688 11.868C3.94 12.1013 4.36 12.2787 4.948 12.4L6.432 12.708C7.36533 12.904 8.06067 13.2073 8.518 13.618C8.97533 14.0287 9.204 14.5747 9.204 15.256C9.204 15.6947 9.11533 16.0913 8.938 16.446C8.76067 16.7913 8.50867 17.09 8.182 17.342C7.85533 17.594 7.45867 17.79 6.992 17.93C6.53467 18.0607 6.01667 18.126 5.438 18.126ZM11.403 18.098C11.179 18.098 11.0063 18.0373 10.885 17.916C10.7637 17.7853 10.703 17.608 10.703 17.384V8.746C10.703 8.51267 10.7637 8.33533 10.885 8.214C11.0063 8.09267 11.179 8.032 11.403 8.032C11.627 8.032 11.7997 8.09267 11.921 8.214C12.0517 8.33533 12.117 8.51267 12.117 8.746V12.624H11.921C12.1263 12.1013 12.4483 11.7093 12.887 11.448C13.3257 11.1773 13.8297 11.042 14.399 11.042C14.9403 11.042 15.3883 11.1447 15.743 11.35C16.107 11.546 16.3777 11.8493 16.555 12.26C16.7323 12.6613 16.821 13.17 16.821 13.786V17.384C16.821 17.608 16.7603 17.7853 16.639 17.916C16.5177 18.0373 16.345 18.098 16.121 18.098C15.8877 18.098 15.7103 18.0373 15.589 17.916C15.4677 17.7853 15.407 17.608 15.407 17.384V13.87C15.407 13.282 15.2903 12.8527 15.057 12.582C14.833 12.3113 14.4783 12.176 13.993 12.176C13.4237 12.176 12.9663 12.3533 12.621 12.708C12.285 13.0627 12.117 13.5387 12.117 14.136V17.384C12.117 17.86 11.879 18.098 11.403 18.098ZM21.7374 18.126C21.0467 18.126 20.4494 17.9813 19.9454 17.692C19.4507 17.4027 19.0634 16.992 18.7834 16.46C18.5034 15.928 18.3634 15.3027 18.3634 14.584C18.3634 14.0333 18.4427 13.5433 18.6014 13.114C18.7601 12.6847 18.9841 12.316 19.2734 12.008C19.5721 11.6907 19.9267 11.4527 20.3374 11.294C20.7574 11.126 21.2241 11.042 21.7374 11.042C22.4187 11.042 23.0067 11.1867 23.5014 11.476C24.0054 11.7653 24.3974 12.176 24.6774 12.708C24.9574 13.2307 25.0974 13.856 25.0974 14.584C25.0974 15.1253 25.0181 15.6153 24.8594 16.054C24.7007 16.4927 24.4721 16.866 24.1734 17.174C23.8841 17.482 23.5294 17.72 23.1094 17.888C22.6987 18.0467 22.2414 18.126 21.7374 18.126ZM21.7374 17.034C22.1201 17.034 22.4561 16.9407 22.7454 16.754C23.0347 16.5673 23.2587 16.292 23.4174 15.928C23.5854 15.564 23.6694 15.116 23.6694 14.584C23.6694 13.7813 23.4921 13.1747 23.1374 12.764C22.7827 12.3533 22.3161 12.148 21.7374 12.148C21.3454 12.148 21.0047 12.2413 20.7154 12.428C20.4261 12.6053 20.1974 12.876 20.0294 13.24C19.8707 13.604 19.7914 14.052 19.7914 14.584C19.7914 15.3773 19.9687 15.984 20.3234 16.404C20.6781 16.824 21.1494 17.034 21.7374 17.034ZM27.3854 20.618C27.1614 20.618 26.9887 20.5573 26.8674 20.436C26.7461 20.3147 26.6854 20.1373 26.6854 19.904V11.784C26.6854 11.5507 26.7461 11.3733 26.8674 11.252C26.9887 11.1307 27.1567 11.07 27.3714 11.07C27.5954 11.07 27.7681 11.1307 27.8894 11.252C28.0107 11.3733 28.0714 11.5507 28.0714 11.784V13.002L27.9174 12.708C28.0667 12.204 28.3607 11.8027 28.7994 11.504C29.2381 11.196 29.7561 11.042 30.3534 11.042C30.9601 11.042 31.4874 11.1867 31.9354 11.476C32.3927 11.7653 32.7427 12.1713 32.9854 12.694C33.2374 13.2167 33.3634 13.8467 33.3634 14.584C33.3634 15.3027 33.2374 15.9327 32.9854 16.474C32.7427 17.006 32.3974 17.4167 31.9494 17.706C31.5014 17.986 30.9694 18.126 30.3534 18.126C29.7654 18.126 29.2521 17.9767 28.8134 17.678C28.3747 17.3793 28.0807 16.9827 27.9314 16.488H28.0994V19.904C28.0994 20.1373 28.0341 20.3147 27.9034 20.436C27.7821 20.5573 27.6094 20.618 27.3854 20.618ZM30.0034 17.034C30.3954 17.034 30.7361 16.9407 31.0254 16.754C31.3147 16.5673 31.5387 16.292 31.6974 15.928C31.8561 15.564 31.9354 15.116 31.9354 14.584C31.9354 13.7813 31.7581 13.1747 31.4034 12.764C31.0581 12.3533 30.5914 12.148 30.0034 12.148C29.6207 12.148 29.2801 12.2413 28.9814 12.428C28.6921 12.6053 28.4681 12.876 28.3094 13.24C28.1507 13.604 28.0714 14.052 28.0714 14.584C28.0714 15.3773 28.2487 15.984 28.6034 16.404C28.9581 16.824 29.4247 17.034 30.0034 17.034Z" fill="black"/>
<defs>
<filter id="filter0_d_26_14" x="10" y="38.25" width="8" height="6.5" filterUnits="userSpaceOnUse" color-interpolation-filters="sRGB">
<feFlood flood-opacity="0" result="BackgroundImageFix"/>
<feColorMatrix in="SourceAlpha" type="matrix" values="0 0 0 0 0 0 0 0 0 0 0 0 0 0 0 0 0 0 127 0" result="hardAlpha"/>
<feOffset dy="3"/>
<feGaussianBlur stdDeviation="1"/>
<feComposite in2="hardAlpha" operator="out"/>
<feColorMatrix type="matrix" values="0 0 0 0 0 0 0 0 0 0 0 0 0 0 0 0 0 0 0.15 0"/>
<feBlend mode="normal" in2="BackgroundImageFix" result="effect1_dropShadow_26_14"/>
<feBlend mode="normal" in="SourceGraphic" in2="effect1_dropShadow_26_14" result="shape"/>
</filter>
<filter id="filter1_d_26_14" x="0" y="0.25" width="62.75" height="45.5" filterUnits="userSpaceOnUse" color-interpolation-filters="sRGB">
<feFlood flood-opacity="0" result="BackgroundImageFix"/>
<feColorMatrix in="SourceAlpha" type="matrix" values="0 0 0 0 0 0 0 0 0 0 0 0 0 0 0 0 0 0 127 0" result="hardAlpha"/>
<feOffset dy="3"/>
<feGaussianBlur stdDeviation="1"/>
<feComposite in2="hardAlpha" operator="out"/>
<feColorMatrix type="matrix" values="0 0 0 0 0 0 0 0 0 0 0 0 0 0 0 0 0 0 0.15 0"/>
<feBlend mode="normal" in2="BackgroundImageFix" result="effect1_dropShadow_26_14"/>
<feBlend mode="normal" in="SourceGraphic" in2="effect1_dropShadow_26_14" result="shape"/>
</filter>
<filter id="filter2_d_26_14" x="24" y="39.25" width="20" height="6.5" filterUnits="userSpaceOnUse" color-interpolation-filters="sRGB">
<feFlood flood-opacity="0" result="BackgroundImageFix"/>
<feColorMatrix in="SourceAlpha" type="matrix" values="0 0 0 0 0 0 0 0 0 0 0 0 0 0 0 0 0 0 127 0" result="hardAlpha"/>
<feOffset dy="3"/>
<feGaussianBlur stdDeviation="1"/>
<feComposite in2="hardAlpha" operator="out"/>
<feColorMatrix type="matrix" values="0 0 0 0 0 0 0 0 0 0 0 0 0 0 0 0 0 0 0.15 0"/>
<feBlend mode="normal" in2="BackgroundImageFix" result="effect1_dropShadow_26_14"/>
<feBlend mode="normal" in="SourceGraphic" in2="effect1_dropShadow_26_14" result="shape"/>
</filter>
<filter id="filter3_d_26_14" x="40" y="35" width="14" height="15" filterUnits="userSpaceOnUse" color-interpolation-filters="sRGB">
<feFlood flood-opacity="0" result="BackgroundImageFix"/>
<feColorMatrix in="SourceAlpha" type="matrix" values="0 0 0 0 0 0 0 0 0 0 0 0 0 0 0 0 0 0 127 0" result="hardAlpha"/>
<feOffset dy="3"/>
<feGaussianBlur stdDeviation="1"/>
<feComposite in2="hardAlpha" operator="out"/>
<feColorMatrix type="matrix" values="0 0 0 0 0 0 0 0 0 0 0 0 0 0 0 0 0 0 0.15 0"/>
<feBlend mode="normal" in2="BackgroundImageFix" result="effect1_dropShadow_26_14"/>
<feBlend mode="normal" in="SourceGraphic" in2="effect1_dropShadow_26_14" result="shape"/>
</filter>
<filter id="filter4_d_26_14" x="14" y="35" width="14" height="15" filterUnits="userSpaceOnUse" color-interpolation-filters="sRGB">
<feFlood flood-opacity="0" result="BackgroundImageFix"/>
<feColorMatrix in="SourceAlpha" type="matrix" values="0 0 0 0 0 0 0 0 0 0 0 0 0 0 0 0 0 0 127 0" result="hardAlpha"/>
<feOffset dy="3"/>
<feGaussianBlur stdDeviation="1"/>
<feComposite in2="hardAlpha" operator="out"/>
<feColorMatrix type="matrix" values="0 0 0 0 0 0 0 0 0 0 0 0 0 0 0 0 0 0 0.15 0"/>
<feBlend mode="normal" in2="BackgroundImageFix" result="effect1_dropShadow_26_14"/>
<feBlend mode="normal" in="SourceGraphic" in2="effect1_dropShadow_26_14" result="shape"/>
</filter>
</defs>
</svg>
